<svg width="112" height="37" viewBox="0 0 112 37" fill="none" xmlns="http://www.w3.org/2000/svg">
<g clip-path="url(#clip0_340_636)">
<path d="M47.9295 19.4024C47.9295 24.7066 43.7799 28.6152 38.6875 28.6152C33.5951 28.6152 29.4456 24.7066 29.4456 19.4024C29.4456 14.0607 33.5951 10.1895 38.6875 10.1895C43.7799 10.1895 47.9295 14.0607 47.9295 19.4024ZM43.8838 19.4024C43.8838 16.0877 41.4788 13.8198 38.6875 13.8198C35.8962 13.8198 33.4912 16.0877 33.4912 19.4024C33.4912 22.6838 35.8962 24.9849 38.6875 24.9849C41.4788 24.9849 43.8838 22.6796 43.8838 19.4024Z" fill="#EA4335"/>
<path d="M67.8672 19.4024C67.8672 24.7066 63.7177 28.6152 58.6253 28.6152C53.5328 28.6152 49.3833 24.7066 49.3833 19.4024C49.3833 14.0649 53.5328 10.1895 58.6253 10.1895C63.7177 10.1895 67.8672 14.0607 67.8672 19.4024ZM63.8215 19.4024C63.8215 16.0877 61.4165 13.8198 58.6253 13.8198C55.834 13.8198 53.429 16.0877 53.429 19.4024C53.429 22.6838 55.834 24.9849 58.6253 24.9849C61.4165 24.9849 63.8215 22.6796 63.8215 19.4024Z" fill="#FBBC05"/>
<path d="M86.974 10.7461V27.2861C86.974 34.0898 82.9615 36.8686 78.218 36.8686C73.7528 36.8686 71.0654 33.8821 70.0519 31.4397L73.5742 29.9735C74.2014 31.473 75.7383 33.2424 78.2139 33.2424C81.2502 33.2424 83.1318 31.3691 83.1318 27.8427V26.5176H82.9906C82.0851 27.635 80.3405 28.6111 78.1391 28.6111C73.5326 28.6111 69.3125 24.5986 69.3125 19.4356C69.3125 14.2352 73.5326 10.1895 78.1391 10.1895C80.3364 10.1895 82.0809 11.1656 82.9906 12.2497H83.1318V10.7502H86.974V10.7461ZM83.4184 19.4356C83.4184 16.1916 81.2544 13.8198 78.5005 13.8198C75.7092 13.8198 73.3707 16.1916 73.3707 19.4356C73.3707 22.6464 75.7092 24.9849 78.5005 24.9849C81.2544 24.9849 83.4184 22.6464 83.4184 19.4356Z" fill="#4285F4"/>
<path d="M93.3086 1.05078V28.0498H89.3625V1.05078H93.3086Z" fill="#34A853"/>
<path d="M108.685 22.4347L111.826 24.5282C110.812 26.0277 108.37 28.6113 104.15 28.6113C98.9159 28.6113 95.0073 24.5656 95.0073 19.3984C95.0073 13.9197 98.9492 10.1855 103.697 10.1855C108.478 10.1855 110.816 13.9903 111.581 16.0464L112 17.0931L99.6844 22.1938C100.627 24.0422 102.094 24.9851 104.15 24.9851C106.21 24.9851 107.639 23.9716 108.685 22.4347ZM99.0198 19.1201L107.252 15.7016C106.8 14.551 105.437 13.7494 103.834 13.7494C101.778 13.7494 98.9159 15.5645 99.0198 19.1201Z" fill="#EA4335"/>
<path d="M14.5088 17.0052V13.0966H27.6802C27.8089 13.7778 27.8754 14.5836 27.8754 15.4559C27.8754 18.3884 27.0737 22.0145 24.4901 24.5981C21.9772 27.215 18.7664 28.6106 14.513 28.6106C6.62928 28.6106 0 22.189 0 14.3053C0 6.4216 6.62928 0 14.513 0C18.8744 0 21.9813 1.71132 24.3157 3.94185L21.5576 6.6999C19.8837 5.1298 17.6158 3.90862 14.5088 3.90862C8.75182 3.90862 4.24922 8.54829 4.24922 14.3053C4.24922 20.0623 8.75182 24.702 14.5088 24.702C18.243 24.702 20.3697 23.2025 21.7321 21.8401C22.837 20.7352 23.5639 19.1568 23.8505 17.001L14.5088 17.0052Z" fill="#4285F4"/>
</g>
<defs>
<clipPath id="clip0_340_636">
<rect width="112" height="37" fill="white"/>
</clipPath>
</defs>
</svg>
