<svg width="125" height="25" viewBox="0 0 125 25" fill="none" xmlns="http://www.w3.org/2000/svg">
<path d="M9.53471 5.63438C10.8541 3.26745 11.5138 2.08398 12.5002 2.08398C13.4865 2.08398 14.1462 3.26744 15.4656 5.63437L15.8069 6.24672C16.1819 6.91933 16.3693 7.25564 16.6617 7.47754C16.954 7.69943 17.318 7.7818 18.0461 7.94654L18.709 8.09652C21.2711 8.67623 22.5522 8.96609 22.857 9.9462C23.1618 10.9263 22.2885 11.9476 20.5417 13.9901L20.0899 14.5186C19.5935 15.099 19.3453 15.3892 19.2336 15.7483C19.122 16.1073 19.1595 16.4945 19.2345 17.269L19.3029 17.974C19.5669 20.6992 19.699 22.0618 18.9011 22.6675C18.1031 23.2733 16.9036 22.721 14.5046 21.6165L13.884 21.3307C13.2024 21.0168 12.8615 20.8598 12.5002 20.8598C12.1388 20.8598 11.798 21.0168 11.1163 21.3307L10.4957 21.6165C8.09671 22.721 6.89723 23.2733 6.09928 22.6675C5.30133 22.0618 5.43337 20.6992 5.69746 17.974L5.76577 17.269C5.84082 16.4945 5.87834 16.1073 5.76669 15.7483C5.65504 15.3892 5.40686 15.099 4.9105 14.5186L4.4586 13.9901C2.71188 11.9476 1.83852 10.9263 2.14331 9.9462C2.4481 8.96609 3.72919 8.67623 6.29135 8.09652L6.95422 7.94654C7.6823 7.7818 8.04634 7.69943 8.33864 7.47754C8.63095 7.25564 8.81842 6.91934 9.19336 6.24672L9.53471 5.63438Z" fill="#FEFBF1"/>
<path d="M34.5347 5.63438C35.8541 3.26745 36.5138 2.08398 37.5002 2.08398C38.4865 2.08398 39.1462 3.26744 40.4656 5.63437L40.8069 6.24672C41.1819 6.91933 41.3693 7.25564 41.6617 7.47754C41.954 7.69943 42.318 7.7818 43.0461 7.94654L43.709 8.09652C46.2711 8.67623 47.5522 8.96609 47.857 9.9462C48.1618 10.9263 47.2885 11.9476 45.5417 13.9901L45.0899 14.5186C44.5935 15.099 44.3453 15.3892 44.2336 15.7483C44.122 16.1073 44.1595 16.4945 44.2345 17.269L44.3029 17.974C44.5669 20.6992 44.699 22.0618 43.9011 22.6675C43.1031 23.2733 41.9036 22.721 39.5046 21.6165L38.884 21.3307C38.2024 21.0168 37.8615 20.8598 37.5002 20.8598C37.1388 20.8598 36.798 21.0168 36.1163 21.3307L35.4957 21.6165C33.0967 22.721 31.8972 23.2733 31.0993 22.6675C30.3013 22.0618 30.4334 20.6992 30.6975 17.974L30.7658 17.269C30.8408 16.4945 30.8783 16.1073 30.7667 15.7483C30.655 15.3892 30.4069 15.099 29.9105 14.5186L29.4586 13.9901C27.7119 11.9476 26.8385 10.9263 27.1433 9.9462C27.4481 8.96609 28.7292 8.67623 31.2914 8.09652L31.9542 7.94654C32.6823 7.7818 33.0463 7.69943 33.3386 7.47754C33.6309 7.25564 33.8184 6.91934 34.1934 6.24672L34.5347 5.63438Z" fill="#FEFBF1"/>
<path d="M59.5347 5.63438C60.8541 3.26745 61.5138 2.08398 62.5002 2.08398C63.4865 2.08398 64.1462 3.26744 65.4656 5.63437L65.8069 6.24672C66.1819 6.91933 66.3693 7.25564 66.6617 7.47754C66.954 7.69943 67.318 7.7818 68.0461 7.94654L68.709 8.09652C71.2711 8.67623 72.5522 8.96609 72.857 9.9462C73.1618 10.9263 72.2885 11.9476 70.5417 13.9901L70.0899 14.5186C69.5935 15.099 69.3453 15.3892 69.2336 15.7483C69.122 16.1073 69.1595 16.4945 69.2345 17.269L69.3029 17.974C69.5669 20.6992 69.699 22.0618 68.9011 22.6675C68.1031 23.2733 66.9036 22.721 64.5046 21.6165L63.884 21.3307C63.2024 21.0168 62.8615 20.8598 62.5002 20.8598C62.1388 20.8598 61.798 21.0168 61.1163 21.3307L60.4957 21.6165C58.0967 22.721 56.8972 23.2733 56.0993 22.6675C55.3013 22.0618 55.4334 20.6992 55.6975 17.974L55.7658 17.269C55.8408 16.4945 55.8783 16.1073 55.7667 15.7483C55.655 15.3892 55.4069 15.099 54.9105 14.5186L54.4586 13.9901C52.7119 11.9476 51.8385 10.9263 52.1433 9.9462C52.4481 8.96609 53.7292 8.67623 56.2914 8.09652L56.9542 7.94654C57.6823 7.7818 58.0463 7.69943 58.3386 7.47754C58.6309 7.25564 58.8184 6.91934 59.1934 6.24672L59.5347 5.63438Z" fill="#FEFBF1"/>
<path d="M84.5347 5.63438C85.8541 3.26745 86.5138 2.08398 87.5002 2.08398C88.4865 2.08398 89.1462 3.26744 90.4656 5.63437L90.8069 6.24672C91.1819 6.91933 91.3693 7.25564 91.6617 7.47754C91.954 7.69943 92.318 7.7818 93.0461 7.94654L93.709 8.09652C96.2711 8.67623 97.5522 8.96609 97.857 9.9462C98.1618 10.9263 97.2885 11.9476 95.5417 13.9901L95.0899 14.5186C94.5935 15.099 94.3453 15.3892 94.2336 15.7483C94.122 16.1073 94.1595 16.4945 94.2345 17.269L94.3029 17.974C94.5669 20.6992 94.699 22.0618 93.9011 22.6675C93.1031 23.2733 91.9036 22.721 89.5046 21.6165L88.884 21.3307C88.2024 21.0168 87.8615 20.8598 87.5002 20.8598C87.1388 20.8598 86.798 21.0168 86.1163 21.3307L85.4957 21.6165C83.0967 22.721 81.8972 23.2733 81.0993 22.6675C80.3013 22.0618 80.4334 20.6992 80.6975 17.974L80.7658 17.269C80.8408 16.4945 80.8783 16.1073 80.7667 15.7483C80.655 15.3892 80.4069 15.099 79.9105 14.5186L79.4586 13.9901C77.7119 11.9476 76.8385 10.9263 77.1433 9.9462C77.4481 8.96609 78.7292 8.67623 81.2914 8.09652L81.9542 7.94654C82.6823 7.7818 83.0463 7.69943 83.3386 7.47754C83.6309 7.25564 83.8184 6.91934 84.1934 6.24672L84.5347 5.63438Z" fill="#FEFBF1"/>
<path d="M109.535 5.63438C110.854 3.26745 111.514 2.08398 112.5 2.08398C113.487 2.08398 114.146 3.26744 115.466 5.63437L115.807 6.24672C116.182 6.91933 116.369 7.25564 116.662 7.47754C116.954 7.69943 117.318 7.7818 118.046 7.94654L118.709 8.09652C121.271 8.67623 122.552 8.96609 122.857 9.9462C123.162 10.9263 122.288 11.9476 120.542 13.9901L120.09 14.5186C119.593 15.099 119.345 15.3892 119.234 15.7483C119.122 16.1073 119.16 16.4945 119.235 17.269L119.303 17.974C119.567 20.6992 119.699 22.0618 118.901 22.6675C118.103 23.2733 116.904 22.721 114.505 21.6165L113.884 21.3307C113.202 21.0168 112.862 20.8598 112.5 20.8598C112.139 20.8598 111.798 21.0168 111.116 21.3307L110.496 21.6165C108.097 22.721 106.897 23.2733 106.099 22.6675C105.301 22.0618 105.433 20.6992 105.697 17.974L105.766 17.269C105.841 16.4945 105.878 16.1073 105.767 15.7483C105.655 15.3892 105.407 15.099 104.91 14.5186L104.459 13.9901C102.712 11.9476 101.839 10.9263 102.143 9.9462C102.448 8.96609 103.729 8.67623 106.291 8.09652L106.954 7.94654C107.682 7.7818 108.046 7.69943 108.339 7.47754C108.631 7.25564 108.818 6.91934 109.193 6.24672L109.535 5.63438Z" fill="#FEFBF1"/>
</svg>
