<svg width="140" height="24" viewBox="0 0 140 24" fill="none" xmlns="http://www.w3.org/2000/svg">
<g clip-path="url(#clip0_340_644)">
<path d="M19.4288 23.9996L12.0005 18.54L4.57219 23.9996L7.42433 15.1825L0 9.75778H9.16626L12.0005 0.925781L14.8347 9.75778H24L16.5767 15.1825L19.4288 23.9996Z" fill="#FFAE00"/>
<path d="M48.4288 23.9996L41.0005 18.54L33.5722 23.9996L36.4243 15.1825L29 9.75778H38.1663L41.0005 0.925781L43.8347 9.75778H53L45.5767 15.1825L48.4288 23.9996Z" fill="#FFAE00"/>
<path d="M77.4288 23.9996L70.0005 18.54L62.5722 23.9996L65.4243 15.1825L58 9.75778H67.1663L70.0005 0.925781L72.8347 9.75778H82L74.5767 15.1825L77.4288 23.9996Z" fill="#FFAE00"/>
<path d="M106.429 23.9996L99.0005 18.54L91.5722 23.9996L94.4243 15.1825L87 9.75778H96.1663L99.0005 0.925781L101.835 9.75778H111L103.577 15.1825L106.429 23.9996Z" fill="#FFAE00"/>
<path d="M135.429 23.9996L128 18.54L120.572 23.9996L123.424 15.1825L116 9.75778H125.166L128 0.925781L130.835 9.75778H140L132.577 15.1825L135.429 23.9996Z" fill="#FFAE00"/>
</g>
<defs>
<clipPath id="clip0_340_644">
<rect width="140" height="24" fill="white"/>
</clipPath>
</defs>
</svg>
